# xmcd
#
# Track frame offsets: 
#        150
#        13983
#        24954
#        36106
#        47897
#        60175
#        71807
#        83389
#        93137
#        105692
#
# Disc length: 1540 seconds
#
# Revision: 0
# Processed by: cddbd v1.5.2PL0 Copyright (c) Steve Scherf et al.
# Submitted via: ExactAudioCopy v1.0b1
#
DISCID=7006020a
DTITLE=Porter Wagoner and Dolly Parton - Once More
DYEAR=1970
DGENRE=Country
TTITLE0=Daddy Was An Old Time Preachers Man
TTITLE1=I Know You're Married But I Love You Still
TTITLE2=Thoughtfulness
TTITLE3=Fight And Scratch
TTITLE4=Before Our Weakness Gets To Strong
TTITLE5=Once More
TTITLE6=One Day At A Time
TTITLE7=Ragged Angel
TTITLE8=A Good Understanding
TTITLE9=Let's Live For Tonight
EXTD=
EXTT0=
EXTT1=
EXTT2=
EXTT3=
EXTT4=
EXTT5=
EXTT6=
EXTT7=
EXTT8=
EXTT9=
PLAYORDER=
